name ./resultDataOpenSim/trcMotMarkerGrf/sub06/grf-14-06.mot
datacolumns 19
datarows 30
range 0.52800000 0.64400000
endheader

                time	     ground_force_vx	     ground_force_vy	     ground_force_vz	     ground_force_px	     ground_force_py	     ground_force_pz	   l_ground_force_vx	   l_ground_force_vy	   l_ground_force_vz	   l_ground_force_px	   l_ground_force_py	   l_ground_force_pz	     ground_torque_x	     ground_torque_y	     ground_torque_z	   l_ground_torque_x	   l_ground_torque_y	   l_ground_torque_z	
          0.52800000	        104.15027012	        657.18648517	        -26.57164494	         -0.81914311	          0.00000000	          0.06922607	          0.00000000	          0.00000000	          0.00000000	          0.00000000	          0.00000000	          0.00000000	          0.00000000	          0.86183548	          0.00000000	          0.00000000	          0.00000000	          0.00000000	
          0.53200000	        109.81043304	        671.97903194	        -27.13262633	         -0.81878433	          0.00000000	          0.06903514	          0.00000000	          0.00000000	          0.00000000	          0.00000000	          0.00000000	          0.00000000	          0.00000000	          0.91461328	          0.00000000	          0.00000000	          0.00000000	          0.00000000	
          0.53600000	        115.46330187	        686.05391386	        -28.19163931	         -0.81840350	          0.00000000	          0.06889084	          0.00000000	          0.00000000	          0.00000000	          0.00000000	          0.00000000	          0.00000000	          0.00000000	          0.93602438	          0.00000000	          0.00000000	          0.00000000	          0.00000000	
          0.54000000	        121.28565431	        699.37741085	        -29.62288574	         -0.81801834	          0.00000000	          0.06878558	          0.00000000	          0.00000000	          0.00000000	          0.00000000	          0.00000000	          0.00000000	          0.00000000	          0.92720383	          0.00000000	          0.00000000	          0.00000000	          0.00000000	
          0.54400000	        127.43541199	        711.93086402	        -31.24134020	         -0.81764433	          0.00000000	          0.06870780	          0.00000000	          0.00000000	          0.00000000	          0.00000000	          0.00000000	          0.00000000	          0.00000000	          0.89451877	          0.00000000	          0.00000000	          0.00000000	          0.00000000	
          0.54800000	        133.99982390	        723.69510610	        -32.83766724	         -0.81728690	          0.00000000	          0.06864784	          0.00000000	          0.00000000	          0.00000000	          0.00000000	          0.00000000	          0.00000000	          0.00000000	          0.84856750	          0.00000000	          0.00000000	          0.00000000	          0.00000000	
          0.55200000	        140.95901971	        734.66379848	        -34.21125967	         -0.81694036	          0.00000000	          0.06859453	          0.00000000	          0.00000000	          0.00000000	          0.00000000	          0.00000000	          0.00000000	          0.00000000	          0.80201462	          0.00000000	          0.00000000	          0.00000000	          0.00000000	
          0.55600000	        148.18659760	        744.84155736	        -35.20908170	         -0.81659727	          0.00000000	          0.06853108	          0.00000000	          0.00000000	          0.00000000	          0.00000000	          0.00000000	          0.00000000	          0.00000000	          0.76671620	          0.00000000	          0.00000000	          0.00000000	          0.00000000	
          0.56000000	        155.50348368	        754.15920046	        -35.76545841	         -0.81626001	          0.00000000	          0.06844450	          0.00000000	          0.00000000	          0.00000000	          0.00000000	          0.00000000	          0.00000000	          0.00000000	          0.75082254	          0.00000000	          0.00000000	          0.00000000	          0.00000000	
          0.56400000	        162.74602120	        762.37539800	        -35.90914847	         -0.81592612	          0.00000000	          0.06834185	          0.00000000	          0.00000000	          0.00000000	          0.00000000	          0.00000000	          0.00000000	          0.00000000	          0.75668614	          0.00000000	          0.00000000	          0.00000000	          0.00000000	
          0.56800000	        169.78286142	        769.12792460	        -35.72990022	         -0.81555832	          0.00000000	          0.06824968	          0.00000000	          0.00000000	          0.00000000	          0.00000000	          0.00000000	          0.00000000	          0.00000000	          0.78028215	          0.00000000	          0.00000000	          0.00000000	          0.00000000	
          0.57200000	        176.50559511	        774.14252184	        -35.34278890	         -0.81510310	          0.00000000	          0.06818784	          0.00000000	          0.00000000	          0.00000000	          0.00000000	          0.00000000	          0.00000000	          0.00000000	          0.81234071	          0.00000000	          0.00000000	          0.00000000	          0.00000000	
          0.57600000	        182.86435372	        777.38087802	        -34.87551240	         -0.81455519	          0.00000000	          0.06814404	          0.00000000	          0.00000000	          0.00000000	          0.00000000	          0.00000000	          0.00000000	          0.00000000	          0.84070257	          0.00000000	          0.00000000	          0.00000000	          0.00000000	
          0.58000000	        188.90680243	        778.94494048	        -34.45733632	         -0.81398541	          0.00000000	          0.06808453	          0.00000000	          0.00000000	          0.00000000	          0.00000000	          0.00000000	          0.00000000	          0.00000000	          0.85300320	          0.00000000	          0.00000000	          0.00000000	          0.00000000	
          0.58400000	        194.73535128	        778.83246021	        -34.18205026	         -0.81346680	          0.00000000	          0.06799171	          0.00000000	          0.00000000	          0.00000000	          0.00000000	          0.00000000	          0.00000000	          0.00000000	          0.83893037	          0.00000000	          0.00000000	          0.00000000	          0.00000000	
          0.58800000	        200.42606103	        776.80352476	        -34.06372863	         -0.81299312	          0.00000000	          0.06788069	          0.00000000	          0.00000000	          0.00000000	          0.00000000	          0.00000000	          0.00000000	          0.00000000	          0.79174557	          0.00000000	          0.00000000	          0.00000000	          0.00000000	
          0.59200000	        206.01134930	        772.50418431	        -34.03429793	         -0.81250352	          0.00000000	          0.06778146	          0.00000000	          0.00000000	          0.00000000	          0.00000000	          0.00000000	          0.00000000	          0.00000000	          0.70905735	          0.00000000	          0.00000000	          0.00000000	          0.00000000	
          0.59600000	        211.51888939	        765.73934935	        -33.98209539	         -0.81197348	          0.00000000	          0.06770656	          0.00000000	          0.00000000	          0.00000000	          0.00000000	          0.00000000	          0.00000000	          0.00000000	          0.59284106	          0.00000000	          0.00000000	          0.00000000	          0.00000000	
          0.60000000	        216.98714279	        756.59705961	        -33.77292289	         -0.81147068	          0.00000000	          0.06763341	          0.00000000	          0.00000000	          0.00000000	          0.00000000	          0.00000000	          0.00000000	          0.00000000	          0.44863983	          0.00000000	          0.00000000	          0.00000000	          0.00000000	
          0.60400000	        222.42784811	        745.25882284	        -33.25178299	         -0.81109546	          0.00000000	          0.06752666	          0.00000000	          0.00000000	          0.00000000	          0.00000000	          0.00000000	          0.00000000	          0.00000000	          0.28403025	          0.00000000	          0.00000000	          0.00000000	          0.00000000	
          0.60800000	        227.77046676	        731.72128131	        -32.27797215	         -0.81086333	          0.00000000	          0.06738394	          0.00000000	          0.00000000	          0.00000000	          0.00000000	          0.00000000	          0.00000000	          0.00000000	          0.10676898	          0.00000000	          0.00000000	          0.00000000	          0.00000000	
          0.61200000	        232.84950891	        715.74300332	        -30.77732042	         -0.81072023	          0.00000000	          0.06722310	          0.00000000	          0.00000000	          0.00000000	          0.00000000	          0.00000000	          0.00000000	          0.00000000	         -0.07678498	          0.00000000	          0.00000000	          0.00000000	          0.00000000	
          0.61600000	        237.44965128	        697.01068503	        -28.75747772	         -0.81061823	          0.00000000	          0.06705947	          0.00000000	          0.00000000	          0.00000000	          0.00000000	          0.00000000	          0.00000000	          0.00000000	         -0.26253766	          0.00000000	          0.00000000	          0.00000000	          0.00000000	
          0.62000000	        241.34975737	        675.29310755	        -26.28204901	         -0.81057448	          0.00000000	          0.06689061	          0.00000000	          0.00000000	          0.00000000	          0.00000000	          0.00000000	          0.00000000	          0.00000000	         -0.44866438	          0.00000000	          0.00000000	          0.00000000	          0.00000000	
          0.62400000	        244.31054084	        650.42751384	        -23.44009355	         -0.81065878	          0.00000000	          0.06670317	          0.00000000	          0.00000000	          0.00000000	          0.00000000	          0.00000000	          0.00000000	          0.00000000	         -0.63475907	          0.00000000	          0.00000000	          0.00000000	          0.00000000	
          0.62800000	        246.01517414	        622.19671801	        -20.33616626	         -0.81092020	          0.00000000	          0.06649527	          0.00000000	          0.00000000	          0.00000000	          0.00000000	          0.00000000	          0.00000000	          0.00000000	         -0.82022563	          0.00000000	          0.00000000	          0.00000000	          0.00000000	
          0.63200000	        246.01929831	        590.28579290	        -17.08175190	         -0.81133269	          0.00000000	          0.06628382	          0.00000000	          0.00000000	          0.00000000	          0.00000000	          0.00000000	          0.00000000	          0.00000000	         -1.00221286	          0.00000000	          0.00000000	          0.00000000	          0.00000000	
          0.63600000	        243.75932326	        554.41927217	        -13.77085650	         -0.81181603	          0.00000000	          0.06608998	          0.00000000	          0.00000000	          0.00000000	          0.00000000	          0.00000000	          0.00000000	          0.00000000	         -1.17373677	          0.00000000	          0.00000000	          0.00000000	          0.00000000	
          0.64000000	        238.61870354	        514.57478106	        -10.46209135	         -0.81228681	          0.00000000	          0.06592483	          0.00000000	          0.00000000	          0.00000000	          0.00000000	          0.00000000	          0.00000000	          0.00000000	         -1.32282490	          0.00000000	          0.00000000	          0.00000000	          0.00000000	
          0.64400000	        230.02024448	        471.09103967	         -7.19022336	         -0.81267263	          0.00000000	          0.06579305	          0.00000000	          0.00000000	          0.00000000	          0.00000000	          0.00000000	          0.00000000	          0.00000000	         -1.43326259	          0.00000000	          0.00000000	          0.00000000	          0.00000000	
